<svg xmlns="http://www.w3.org/2000/svg" viewBox="0 0 900 500" width="900" height="500">
  <defs>
    <filter id="shadow" x="-5%" y="-5%" width="115%" height="115%">
      <feDropShadow dx="0" dy="2" stdDeviation="4" flood-color="#000" flood-opacity="0.3"/>
    </filter>
    <linearGradient id="purpleGrad" x1="0%" y1="0%" x2="100%" y2="100%">
      <stop offset="0%" stop-color="#8b5cf6"/>
      <stop offset="100%" stop-color="#7c3aed"/>
    </linearGradient>
    <linearGradient id="greenArrow" x1="0%" y1="0%" x2="100%" y2="0%">
      <stop offset="0%" stop-color="#10b981"/>
      <stop offset="100%" stop-color="#059669"/>
    </linearGradient>
  </defs>

  <!-- Background -->
  <rect width="900" height="500" rx="12" fill="#0f172a"/>

  <!-- Title -->
  <text x="450" y="38" text-anchor="middle" fill="#c4b5fd" font-family="system-ui, sans-serif" font-size="18" font-weight="700" letter-spacing="1">RAMPART ARCHITECTURE</text>

  <!-- ========== Browser / Admin (top) ========== -->
  <rect x="365" y="56" width="170" height="48" rx="10" fill="#1e293b" stroke="#334155" stroke-width="1.5" filter="url(#shadow)"/>
  <!-- Globe icon -->
  <circle cx="392" cy="80" r="10" fill="none" stroke="#94a3b8" stroke-width="1.5"/>
  <line x1="382" y1="80" x2="402" y2="80" stroke="#94a3b8" stroke-width="1"/>
  <ellipse cx="392" cy="80" rx="5" ry="10" fill="none" stroke="#94a3b8" stroke-width="1"/>
  <text x="410" y="84" fill="#f8fafc" font-family="system-ui, sans-serif" font-size="13" font-weight="600">Browser</text>

  <!-- Arrow: Browser → Rampart -->
  <line x1="450" y1="104" x2="450" y2="142" stroke="#c4b5fd" stroke-width="1.5" stroke-dasharray="5,3"/>
  <polygon points="445,140 450,150 455,140" fill="#c4b5fd"/>
  <text x="468" y="132" fill="#94a3b8" font-family="system-ui, sans-serif" font-size="10">Admin Console</text>

  <!-- ========== Your Application (left) ========== -->
  <rect x="30" y="210" width="190" height="90" rx="12" fill="#1e293b" stroke="#334155" stroke-width="1.5" filter="url(#shadow)"/>
  <!-- Code icon: < / > -->
  <text x="62" y="248" fill="#60a5fa" font-family="monospace" font-size="18" font-weight="700">&lt;/&gt;</text>
  <text x="90" y="248" fill="#f8fafc" font-family="system-ui, sans-serif" font-size="14" font-weight="600">Your App</text>
  <text x="125" y="270" text-anchor="middle" fill="#94a3b8" font-family="system-ui, sans-serif" font-size="11">React, Express, etc.</text>

  <!-- ========== Rampart Server (center) ========== -->
  <rect x="290" y="150" width="320" height="230" rx="14" fill="url(#purpleGrad)" opacity="0.15" stroke="#8b5cf6" stroke-width="2" filter="url(#shadow)"/>
  <rect x="290" y="150" width="320" height="230" rx="14" fill="none" stroke="#8b5cf6" stroke-width="1.5"/>

  <!-- Shield icon -->
  <path d="M435,170 L435,185 Q435,198 450,205 Q465,198 465,185 L465,170 L450,164 Z" fill="none" stroke="#c4b5fd" stroke-width="1.8"/>
  <path d="M445,180 L449,184 L457,176" fill="none" stroke="#10b981" stroke-width="2" stroke-linecap="round" stroke-linejoin="round"/>

  <text x="450" y="225" text-anchor="middle" fill="#f8fafc" font-family="system-ui, sans-serif" font-size="16" font-weight="700">Rampart Server</text>

  <!-- Sub-components inside Rampart -->
  <!-- OAuth 2.0 / OIDC -->
  <rect x="305" y="240" width="130" height="32" rx="6" fill="#1e1b4b" stroke="#6d28d9" stroke-width="1"/>
  <text x="370" y="261" text-anchor="middle" fill="#c4b5fd" font-family="system-ui, sans-serif" font-size="11" font-weight="600">OAuth 2.0 / OIDC</text>

  <!-- Token Service -->
  <rect x="305" y="280" width="130" height="32" rx="6" fill="#1e1b4b" stroke="#6d28d9" stroke-width="1"/>
  <text x="370" y="301" text-anchor="middle" fill="#f59e0b" font-family="system-ui, sans-serif" font-size="11" font-weight="600">Token Service</text>
  <text x="370" y="312" text-anchor="middle" fill="#94a3b8" font-family="system-ui, sans-serif" font-size="8">(JWT / JWKS)</text>

  <!-- Admin Console -->
  <rect x="465" y="240" width="130" height="32" rx="6" fill="#1e1b4b" stroke="#6d28d9" stroke-width="1"/>
  <text x="530" y="261" text-anchor="middle" fill="#c4b5fd" font-family="system-ui, sans-serif" font-size="11" font-weight="600">Admin Console</text>

  <!-- MFA Engine -->
  <rect x="465" y="280" width="130" height="32" rx="6" fill="#1e1b4b" stroke="#6d28d9" stroke-width="1"/>
  <text x="530" y="301" text-anchor="middle" fill="#c4b5fd" font-family="system-ui, sans-serif" font-size="11" font-weight="600">MFA Engine</text>

  <!-- Session Manager -->
  <rect x="385" y="330" width="130" height="32" rx="6" fill="#1e1b4b" stroke="#6d28d9" stroke-width="1"/>
  <text x="450" y="351" text-anchor="middle" fill="#c4b5fd" font-family="system-ui, sans-serif" font-size="11" font-weight="600">Session Manager</text>

  <!-- ========== PostgreSQL (bottom-right) ========== -->
  <rect x="680" y="350" width="185" height="90" rx="12" fill="#1e293b" stroke="#334155" stroke-width="1.5" filter="url(#shadow)"/>
  <!-- DB icon (cylinder) -->
  <ellipse cx="720" cy="380" rx="14" ry="6" fill="none" stroke="#60a5fa" stroke-width="1.5"/>
  <line x1="706" y1="380" x2="706" y2="400" stroke="#60a5fa" stroke-width="1.5"/>
  <line x1="734" y1="380" x2="734" y2="400" stroke="#60a5fa" stroke-width="1.5"/>
  <ellipse cx="720" cy="400" rx="14" ry="6" fill="none" stroke="#60a5fa" stroke-width="1.5"/>
  <text x="745" y="392" fill="#f8fafc" font-family="system-ui, sans-serif" font-size="14" font-weight="600">PostgreSQL</text>
  <text x="772" y="412" text-anchor="middle" fill="#94a3b8" font-family="system-ui, sans-serif" font-size="10">Users, Sessions, Keys</text>

  <!-- ========== Arrows ========== -->

  <!-- App → Rampart: Auth Request -->
  <line x1="220" y1="240" x2="285" y2="240" stroke="#94a3b8" stroke-width="1.5"/>
  <polygon points="283,235 293,240 283,245" fill="#94a3b8"/>
  <text x="252" y="232" text-anchor="middle" fill="#94a3b8" font-family="system-ui, sans-serif" font-size="10">Auth</text>
  <text x="252" y="243" text-anchor="middle" fill="#94a3b8" font-family="system-ui, sans-serif" font-size="10">Request</text>

  <!-- Rampart → App: JWT Token (green, below) -->
  <line x1="288" y1="270" x2="222" y2="270" stroke="#10b981" stroke-width="1.5"/>
  <polygon points="224,265 214,270 224,275" fill="#10b981"/>
  <text x="252" y="286" text-anchor="middle" fill="#10b981" font-family="system-ui, sans-serif" font-size="10" font-weight="600">JWT Token</text>

  <!-- Rampart → PostgreSQL -->
  <line x1="610" y1="340" x2="678" y2="380" stroke="#94a3b8" stroke-width="1.5"/>
  <polygon points="673,373 680,382 671,381" fill="#94a3b8"/>
  <text x="660" y="345" text-anchor="end" fill="#94a3b8" font-family="system-ui, sans-serif" font-size="10">Store</text>

  <!-- ========== Footer ========== -->
  <text x="450" y="480" text-anchor="middle" fill="#475569" font-family="system-ui, sans-serif" font-size="10">Open-source IAM / OAuth 2.0 server with OIDC support</text>
</svg>
