<svg xmlns="http://www.w3.org/2000/svg" viewBox="0 0 64 64" fill="none">
  <!-- Base wall -->
  <rect x="8" y="28" width="48" height="32" rx="2" fill="#8b5cf6"/>
  <!-- Battlements / merlons -->
  <rect x="8" y="22" width="8" height="10" rx="1" fill="#8b5cf6"/>
  <rect x="20" y="22" width="8" height="10" rx="1" fill="#8b5cf6"/>
  <rect x="36" y="22" width="8" height="10" rx="1" fill="#8b5cf6"/>
  <rect x="48" y="22" width="8" height="10" rx="1" fill="#8b5cf6"/>
  <!-- Central tower -->
  <rect x="22" y="10" width="20" height="22" rx="2" fill="#7c3aed"/>
  <!-- Tower battlements -->
  <rect x="22" y="4" width="6" height="10" rx="1" fill="#7c3aed"/>
  <rect x="29" y="4" width="6" height="10" rx="1" fill="#7c3aed"/>
  <rect x="36" y="4" width="6" height="10" rx="1" fill="#7c3aed"/>
  <!-- Gate arch -->
  <path d="M26 60V46a6 6 0 0 1 12 0v14H26z" fill="#0f0f17" opacity="0.7"/>
  <!-- Window slits -->
  <rect x="14" y="36" width="3" height="8" rx="1.5" fill="#6d28d9"/>
  <rect x="47" y="36" width="3" height="8" rx="1.5" fill="#6d28d9"/>
  <!-- Tower window -->
  <circle cx="32" cy="22" r="3" fill="#c4b5fd" opacity="0.6"/>
  <!-- Foundation line -->
  <rect x="6" y="58" width="52" height="3" rx="1.5" fill="#6d28d9"/>
</svg>
